<svg xmlns="http://www.w3.org/2000/svg" width="1200" height="630" viewBox="0 0 1200 630">
  <rect width="1200" height="630" fill="#f8f7f3"/>
  <g stroke="#587754" stroke-opacity=".045" stroke-width="1">
    <path d="M0 42H1200M0 84H1200M0 126H1200M0 168H1200M0 210H1200M0 252H1200M0 294H1200M0 336H1200M0 378H1200M0 420H1200M0 462H1200M0 504H1200M0 546H1200M0 588H1200"/>
    <path d="M42 0V630M84 0V630M126 0V630M168 0V630M210 0V630M252 0V630M294 0V630M336 0V630M378 0V630M420 0V630M462 0V630M504 0V630M546 0V630M588 0V630M630 0V630M672 0V630M714 0V630M756 0V630M798 0V630M840 0V630M882 0V630M924 0V630M966 0V630M1008 0V630M1050 0V630M1092 0V630M1134 0V630M1176 0V630"/>
  </g>
  <rect x="32" y="32" width="1136" height="566" rx="18" fill="none" stroke="#587754" stroke-opacity=".15"/>
  <text x="600" y="164" text-anchor="middle" fill="#587754" font-family="Arial, Helvetica, sans-serif" font-size="20" font-weight="700" letter-spacing="7">A WEDDING INVITATION FOR YOU</text>
  <text x="600" y="280" text-anchor="middle" fill="#587754" font-family="Georgia, 'Times New Roman', serif" font-size="68" font-style="italic">Victoria &amp; Hunter</text>
  <text x="600" y="354" text-anchor="middle" fill="#181714" font-family="Georgia, 'Times New Roman', serif" font-size="47">saved a seat for you.</text>
  <line x1="505" y1="412" x2="695" y2="412" stroke="#587754" stroke-opacity=".35"/>
  <text x="600" y="468" text-anchor="middle" fill="#67645d" font-family="Arial, Helvetica, sans-serif" font-size="25" letter-spacing="3">OCTOBER 17TH, 2026</text>
</svg>
